<svg xmlns="http://www.w3.org/2000/svg" version="1.1" xmlns:xlink="http://www.w3.org/1999/xlink" xmlns:svgjs="http://svgjs.dev/svgjs" width="1440" height="250" preserveAspectRatio="none" viewBox="0 0 1440 250"><g mask="url(&quot;#SvgjsMask1003&quot;)" fill="none"><path d="M43 250L293 0L398 0L148 250z" fill="url(&quot;#SvgjsLinearGradient1004&quot;)"></path><path d="M265.6 250L515.6 0L697.1 0L447.1 250z" fill="url(&quot;#SvgjsLinearGradient1004&quot;)"></path><path d="M519.2 250L769.2 0L874.2 0L624.2 250z" fill="url(&quot;#SvgjsLinearGradient1004&quot;)"></path><path d="M737.8000000000001 250L987.8000000000001 0L1052.3000000000002 0L802.3000000000001 250z" fill="url(&quot;#SvgjsLinearGradient1004&quot;)"></path><path d="M1430 250L1180 0L1075 0L1325 250z" fill="url(&quot;#SvgjsLinearGradient1005&quot;)"></path><path d="M1182.4 250L932.4000000000001 0L846.9000000000001 0L1096.9 250z" fill="url(&quot;#SvgjsLinearGradient1005&quot;)"></path><path d="M927.8 250L677.8 0L592.3 0L842.3 250z" fill="url(&quot;#SvgjsLinearGradient1005&quot;)"></path><path d="M718.1999999999999 250L468.19999999999993 0L378.19999999999993 0L628.1999999999999 250z" fill="url(&quot;#SvgjsLinearGradient1005&quot;)"></path><path d="M1201.4302350788157 250L1440 11.430235078815798L1440 250z" fill="url(&quot;#SvgjsLinearGradient1004&quot;)"></path><path d="M0 250L238.5697649211842 250L 0 11.430235078815798z" fill="url(&quot;#SvgjsLinearGradient1005&quot;)"></path></g><defs><mask id="SvgjsMask1003"><rect width="1440" height="250" fill="#ffffff"></rect></mask><linearGradient x1="0%" y1="100%" x2="100%" y2="0%" id="SvgjsLinearGradient1004"><stop stop-color="rgba(15, 70, 185, 0.2)" offset="0"></stop><stop stop-opacity="0" stop-color="rgba(15, 70, 185, 0.2)" offset="0.66"></stop></linearGradient><linearGradient x1="100%" y1="100%" x2="0%" y2="0%" id="SvgjsLinearGradient1005"><stop stop-color="rgba(15, 70, 185, 0.2)" offset="0"></stop><stop stop-opacity="0" stop-color="rgba(15, 70, 185, 0.2)" offset="0.66"></stop></linearGradient></defs></svg>